<svg width="220" height="220" viewBox="0 0 220 220" fill="none" xmlns="http://www.w3.org/2000/svg">
<circle cx="110" cy="110" r="110" fill="#1A1A1A"/>
<path d="M110.17 0.00997925C49.32 0.00997925 0 49.34 0 110.18C0 121.55 1.72 132.52 4.92 142.84C13.55 130.15 26.17 111.47 42.79 86.82C43.03 86.47 42.96 85.99 42.64 85.72L25.65 70.92C25.29 70.61 25.25 70.06 25.56 69.7C25.72 69.51 25.96 69.4 26.22 69.4C58.45 69.33 85.18 69.34 106.41 69.42C120.57 69.47 123.47 80.69 128.82 91.28C133.24 100.02 136.59 105.64 132.8 113.6C132.1 115.07 130.19 118.14 127.06 122.79C117.9 136.39 108.69 150 99.43 163.62C94.61 170.71 87.97 174.27 79.52 174.3C75.28 174.32 67.13 174.35 55.08 174.38C54.7 174.38 54.39 174.06 54.4 173.69C54.4 173.55 54.44 173.42 54.52 173.31C68.04 153.3 83.12 131.03 99.74 106.5C104.99 98.75 100.53 91.05 91.39 91.06C84.61 91.07 72.75 91.12 55.83 91.2C55.28 91.2 54.84 91.65 54.84 92.2C54.84 92.27 54.84 92.35 54.87 92.42C55.17 93.71 62.55 99.37 68.12 104.05C68.58 104.43 68.67 105.1 68.34 105.6L21.26 175.24C41.3 202.59 73.66 220.35 110.17 220.35C171.02 220.35 220.34 171.02 220.34 110.17C220.34 49.32 171.01 0 110.17 0V0.00997925ZM169.59 163.55C164.61 170.86 157.94 174.48 149.59 174.41C139.21 174.32 125.58 174.77 124.49 174.04C124.36 173.95 124.33 173.78 124.42 173.65C138.48 152.79 153.49 130.67 169.45 107.28C174.13 100.41 172.28 91.56 162.8 91.14C160.32 91.03 154.37 91.02 144.94 91.11C144.03 91.11 143.19 90.6 142.78 89.78L132.88 70.04C132.75 69.8 132.85 69.49 133.1 69.36C133.17 69.33 133.25 69.31 133.33 69.31C149.95 69.35 164.13 69.37 175.87 69.37C183.76 69.37 189.37 72.6 192.69 79.05C197.1 87.6 200.57 94.6 203.08 100.04C206.59 107.63 203.36 113.87 198.98 120.32C189.2 134.75 179.41 149.15 169.6 163.53L169.59 163.55Z" fill="#FF5724"/>
</svg>




