<svg width="748" height="221" viewBox="0 0 748 221" fill="none" xmlns="http://www.w3.org/2000/svg">
<path d="M110.17 0.00997925C49.32 0.00997925 0 49.34 0 110.18C0 121.55 1.72 132.52 4.92 142.84C13.55 130.15 26.17 111.47 42.79 86.82C43.03 86.47 42.96 85.99 42.64 85.72L25.65 70.92C25.29 70.61 25.25 70.06 25.56 69.7C25.72 69.51 25.96 69.4 26.22 69.4C58.45 69.33 85.18 69.34 106.41 69.42C120.57 69.47 123.47 80.69 128.82 91.28C133.24 100.02 136.59 105.64 132.8 113.6C132.1 115.07 130.19 118.14 127.06 122.79C117.9 136.39 108.69 150 99.43 163.62C94.61 170.71 87.97 174.27 79.52 174.3C75.28 174.32 67.13 174.35 55.08 174.38C54.7 174.38 54.39 174.06 54.4 173.69C54.4 173.55 54.44 173.42 54.52 173.31C68.04 153.3 83.12 131.03 99.74 106.5C104.99 98.75 100.53 91.05 91.39 91.06C84.61 91.07 72.75 91.12 55.83 91.2C55.28 91.2 54.84 91.65 54.84 92.2C54.84 92.27 54.84 92.35 54.87 92.42C55.17 93.71 62.55 99.37 68.12 104.05C68.58 104.43 68.67 105.1 68.34 105.6L21.26 175.24C41.3 202.59 73.66 220.35 110.17 220.35C171.02 220.35 220.34 171.02 220.34 110.17C220.34 49.32 171.01 0 110.17 0V0.00997925ZM169.59 163.55C164.61 170.86 157.94 174.48 149.59 174.41C139.21 174.32 125.58 174.77 124.49 174.04C124.36 173.95 124.33 173.78 124.42 173.65C138.48 152.79 153.49 130.67 169.45 107.28C174.13 100.41 172.28 91.56 162.8 91.14C160.32 91.03 154.37 91.02 144.94 91.11C144.03 91.11 143.19 90.6 142.78 89.78L132.88 70.04C132.75 69.8 132.85 69.49 133.1 69.36C133.17 69.33 133.25 69.31 133.33 69.31C149.95 69.35 164.13 69.37 175.87 69.37C183.76 69.37 189.37 72.6 192.69 79.05C197.1 87.6 200.57 94.6 203.08 100.04C206.59 107.63 203.36 113.87 198.98 120.32C189.2 134.75 179.41 149.15 169.6 163.53L169.59 163.55Z" fill="#FF3C04"/>
<path d="M371.82 33.53V139.09H351.16V70.63L321.39 119.6L318.96 119.69L289.33 70.89V139.09H268.52V33.53H289.93L320.2 83.37L350.31 33.53H371.81H371.82Z" fill="black"/>
<path d="M430.78 141.2C419.02 141.2 409.37 137.88 401.83 131.25C394.29 124.61 390.52 115.72 390.52 104.56V33.53H411.18V102.9C411.18 108.43 412.76 112.8 415.93 116.02C419.1 119.24 424.05 120.85 430.78 120.85C437.51 120.85 442.47 119.24 445.63 116.02C448.8 112.8 450.38 108.43 450.38 102.9V33.53H471.19V104.56C471.19 115.72 467.42 124.62 459.88 131.25C452.34 137.89 442.64 141.2 430.78 141.2Z" fill="black"/>
<path d="M572.38 139.09H548.4L510.7 89.64V139.09H489.89V33.53H510.7V80.04L546.89 33.53H570.87L531.82 84.8L572.38 139.09Z" fill="black"/>
<path d="M652.45 33.53V53.43H623.95V139.08H603.14V53.43H574.79V33.53H652.45Z" fill="black"/>
<path d="M725.75 139.09L719.04 120.09H675.68L669.35 139.09H646.88L683.83 33.53H709.62L746.86 139.09H725.76H725.75ZM682.46 100.63H712.17L696.94 57.5L682.46 100.63Z" fill="black"/>
<path d="M275.01 179.98H288.88V186.19H268.52V153.28H288.64V159.49H275.01V166.5H287.47V172.61H275.01V179.99V179.98Z" fill="#FF3C04"/>
<path d="M365.98 186.19H358.6L352.21 175.46L345.82 186.19H338.49L348.55 169.3L339.01 153.28H346.34L352.22 163.13L358.09 153.28H365.42L355.89 169.28L365.99 186.19H365.98Z" fill="#FF3C04"/>
<path d="M429.36 153.28C432.53 153.28 435.19 154.35 437.35 156.48C439.51 158.61 440.59 161.23 440.59 164.33C440.59 167.43 439.51 170.05 437.35 172.18C435.19 174.31 432.52 175.38 429.36 175.38H423.58V186.19H417.09V153.28H429.36ZM429.36 169.31C430.74 169.31 431.88 168.83 432.79 167.88C433.7 166.92 434.15 165.74 434.15 164.33C434.15 162.92 433.7 161.7 432.79 160.76C431.88 159.82 430.74 159.35 429.36 159.35H423.58V169.32H429.36V169.31Z" fill="#FF3C04"/>
<path d="M519.76 181.89C516.44 185.2 512.39 186.85 507.63 186.85C502.87 186.85 498.83 185.2 495.52 181.89C492.21 178.58 490.56 174.53 490.56 169.74C490.56 164.95 492.21 160.89 495.52 157.59C498.83 154.28 502.86 152.63 507.63 152.63C512.4 152.63 516.44 154.28 519.76 157.59C523.08 160.9 524.74 164.95 524.74 169.74C524.74 174.53 523.08 178.59 519.76 181.89ZM500.06 177.47C502.1 179.49 504.62 180.5 507.63 180.5C510.64 180.5 513.16 179.49 515.2 177.47C517.24 175.45 518.25 172.87 518.25 169.74C518.25 166.61 517.23 164.02 515.2 161.98C513.16 159.94 510.64 158.92 507.63 158.92C504.62 158.92 502.1 159.94 500.06 161.98C498.02 164.02 497.01 166.6 497.01 169.74C497.01 172.88 498.03 175.45 500.06 177.47Z" fill="#FF3C04"/>
<path d="M594.84 186.19L588.19 174.77H583.28V186.19H576.79V153.28H589.95C592.99 153.28 595.58 154.35 597.71 156.48C599.84 158.61 600.91 161.18 600.91 164.19C600.91 166.23 600.33 168.12 599.17 169.86C598.01 171.6 596.47 172.91 594.56 173.78L601.84 186.19H594.84ZM583.28 159.34V169.07H589.96C591.18 169.07 592.23 168.59 593.11 167.64C593.99 166.68 594.43 165.53 594.43 164.18C594.43 162.83 593.99 161.69 593.11 160.75C592.23 159.81 591.18 159.34 589.96 159.34H583.28Z" fill="#FF3C04"/>
<path d="M674.2 153.28V159.49H665.32V186.19H658.83V159.49H649.99V153.28H674.2Z" fill="#FF3C04"/>
<path d="M735.6 186.85C732.34 186.85 729.6 186.12 727.37 184.66C725.14 183.2 723.58 181.22 722.67 178.71L728.22 175.47C729.51 178.82 732.03 180.5 735.79 180.5C737.61 180.5 738.94 180.17 739.79 179.51C740.64 178.85 741.06 178.02 741.06 177.02C741.06 175.86 740.54 174.96 739.51 174.32C738.48 173.68 736.63 172.98 733.96 172.23C732.49 171.79 731.24 171.35 730.22 170.91C729.2 170.47 728.18 169.88 727.16 169.15C726.14 168.41 725.37 167.48 724.83 166.35C724.3 165.22 724.03 163.9 724.03 162.4C724.03 159.42 725.09 157.05 727.2 155.28C729.31 153.51 731.86 152.62 734.84 152.62C737.5 152.62 739.85 153.27 741.87 154.57C743.89 155.87 745.47 157.68 746.59 160L741.14 163.15C739.82 160.33 737.72 158.92 734.84 158.92C733.49 158.92 732.44 159.23 731.67 159.84C730.9 160.45 730.52 161.24 730.52 162.21C730.52 163.24 730.95 164.08 731.81 164.73C732.67 165.37 734.33 166.07 736.77 166.82C737.77 167.13 738.53 167.38 739.05 167.55C739.57 167.72 740.27 167.99 741.16 168.35C742.05 168.71 742.74 169.05 743.23 169.36C743.72 169.67 744.27 170.1 744.9 170.63C745.53 171.16 746 171.71 746.33 172.28C746.66 172.84 746.94 173.53 747.18 174.32C747.41 175.12 747.53 175.99 747.53 176.93C747.53 179.97 746.43 182.38 744.22 184.17C742.01 185.96 739.13 186.85 735.59 186.85H735.6Z" fill="#FF3C04"/>
</svg>
